<svg xmlns="http://www.w3.org/2000/svg" xmlns:xlink="http://www.w3.org/1999/xlink" version="1.1"
      viewBox="0 0 100 100" style="enable-background: new 0 0 100 100" xml:space="preserve">
      <path
        d="M7.5,7.5v85h85v-85H7.5z M87.2,9.7h3.1v7.5h-3.1V9.7z M90.3,90.3l-3.1-3.1v-2.6l3.1,3.1V90.3L90.3,90.3z M77.8,85.7  L64.2,72.1h2.6l13.5,13.5L77.8,85.7L77.8,85.7z M81.7,85.7L68.2,72.1h2.6l13.5,13.5L81.7,85.7L81.7,85.7z M72.1,72.1h2.6L85,82.4V85  L72.1,72.1z M85,59.6H74V41h11V59.6z M85,73.2l-1.1-1.1H85V73.2z M82.6,72.1l2.4,2.4v2.6l-5-5H82.6z M78.7,72.1l6.3,6.3V81l-8.9-8.9  H78.7z M87.2,83.3v-2.6l3.1,3.1v2.6L87.2,83.3z M87.2,79.3v-2.6l3.1,3.1v2.6L87.2,79.3z M87.2,75.4v-2.6l3.1,3.1v2.6L87.2,75.4z   M87.9,72.1h2.5v2.5L87.9,72.1z M87.2,19.4h3.1v50.5h-3.1V19.4z M60.9,19.4H85v19.4H60.9V19.4z M60.9,41h11v18.6h-11V41z M60.9,61.8  H85v8.1H60.9V61.8z M63,72.1l13.5,13.5h-2.6l-13-13v-0.5H63z M58.7,23.2l-3.8-3.8h3.8V23.2z M53.6,19.4l5.1,5.1v2.6L51,19.4  C51,19.4,53.6,19.4,53.6,19.4z M49.6,19.4l9,9V31L47,19.4H49.6z M45.7,19.4l13,13V35L43.1,19.4H45.7z M41.8,19.4l16.9,16.9V39  L39.1,19.4H41.8z M37.8,19.4l20.8,20.8v2.6L35.2,19.4H37.8z M33.9,19.4l24.8,24.8v2.6L31.2,19.4H33.9z M58.7,48.1v2.6L27.3,19.4h2.6  L58.7,48.1z M26,19.4l32.7,32.7v2.6L23.4,19.4H26z M22.1,19.4L58.7,56v2.6L19.4,19.4H22.1z M18.6,55.3l4.3,4.3h-4.3  C18.6,59.6,18.6,55.3,18.6,55.3z M24.2,59.6L18.6,54v-2.6l8.2,8.2C26.8,59.6,24.2,59.6,24.2,59.6z M28.1,59.6l-9.5-9.5v-2.6  l12.1,12.1H28.1z M32.1,59.6L18.6,46.2v-2.6l16.1,16.1h-2.6V59.6z M36,59.6L18.6,42.2v-2.6l20,20C38.6,59.6,36,59.6,36,59.6z   M40,59.6L18.6,38.3v-2.6l24,24H40V59.6z M43.9,59.6L18.6,34.4v-2.6l27.9,27.9h-2.6V59.6z M47.8,59.6L18.6,30.4v-2.6l31.8,31.8H47.8  z M51.8,59.6L18.6,26.5v-2.6l35.8,35.8L51.8,59.6L51.8,59.6z M55.7,59.6L18.6,22.5v-2.6l39.7,39.7H55.7z M62,85.7l-1.2-1.2v-2.6  l3.8,3.8C64.6,85.7,62,85.7,62,85.7z M66,85.7l-5.1-5.1V78l7.8,7.8H66V85.7z M69.9,85.7l-9-9V74l11.7,11.7H69.9z M29.3,9.7h29.3v7.5  H29.3V9.7z M9.7,9.7h17.5v7.5H9.7V9.7z M16.4,90.3H9.7V72.1h6.8v18.2H16.4z M16.4,69.9H9.7V41h6.8v28.9H16.4z M16.4,38.8H9.7V19.4  h6.8v19.4H16.4z M37.8,90.3H18.6v-9.8h19.2C37.8,80.5,37.8,90.3,37.8,90.3z M58.7,90.3H40v-2.5h18.7V90.3z M58.7,80.5H40v-8.4h18.7  V80.5z M58.7,69.9H40v-8.1h18.7V69.9z M85,90.3H60.9v-2.5H85V90.3z M87.2,88.5l1.8,1.8h-1.8V88.5z" />
    </svg>